<svg width="40" height="45" viewBox="0 0 40 45" fill="none" xmlns="http://www.w3.org/2000/svg">
<path d="M39.998 13.23C39.9977 12.4733 39.836 11.8047 39.509 11.231C39.1879 10.6666 38.707 10.1936 38.0618 9.8197C32.7367 6.74625 27.4065 3.6822 22.0831 0.605618C20.6479 -0.223723 19.2564 -0.193331 17.8319 0.647915C15.7124 1.89898 5.10052 7.98462 1.93832 9.81797C0.636038 10.5727 0.00234758 11.7276 0.00203457 13.2285C0 19.4094 0.00203457 25.5903 0 31.7712C0 32.5113 0.155097 33.167 0.467639 33.7321C0.788944 34.3134 1.27662 34.7994 1.9366 35.1818C5.09895 37.0151 15.7122 43.1003 17.8313 44.3519C19.2564 45.1936 20.6479 45.2236 22.0836 44.3942C27.4071 41.3174 32.7377 38.2534 38.0636 35.1799C38.7235 34.7977 39.2112 34.3114 39.5325 33.7305C39.8446 33.1653 40 32.5097 40 31.7695C40 31.7695 40 19.411 39.998 13.23Z" fill="#A179DC"/>
<path d="M20.0612 22.4397L0.467639 33.7321C0.788944 34.3134 1.27662 34.7994 1.9366 35.1818C5.09895 37.0151 15.7122 43.1003 17.8313 44.3519C19.2564 45.1936 20.6479 45.2236 22.0836 44.3942C27.4071 41.3174 32.7377 38.2534 38.0636 35.1799C38.7235 34.7977 39.2112 34.3114 39.5325 33.7305L20.0612 22.4397Z" fill="#280068"/>
<path d="M39.998 13.23C39.9977 12.4733 39.836 11.8047 39.509 11.231L20.0612 22.4397L39.5325 33.7305C39.8446 33.1653 40 32.5097 40 31.7695C40 31.7695 40 19.411 39.998 13.23Z" fill="#390091"/>
<path d="M31.5972 18.2182V20.329H33.7059V18.2182H34.7603V20.329H36.8691V21.3844H34.7603V23.4951H36.8691V24.5504H34.7603V26.6612H33.7059V24.5504H31.5972V26.6612H30.5428V24.5504H28.4342V23.4951H30.5428V21.3844H28.4342V20.329H30.5428V18.2182H31.5972ZM33.7059 21.3843H31.5972V23.4951H33.7059V21.3843Z" fill="white"/>
<path d="M20.1042 7.61758C25.6044 7.61758 30.4065 10.6075 32.9787 15.0519L32.9536 15.0091L26.4821 18.7388C25.2072 16.578 22.87 15.1197 20.1886 15.0896L20.104 15.0892C16.0153 15.0892 12.7005 18.4072 12.7005 22.4998C12.6992 23.7898 13.0359 25.0575 13.677 26.1765C14.9531 28.4066 17.3522 29.9106 20.1042 29.9106C22.8732 29.9106 25.2859 28.3874 26.5555 26.1336L26.5247 26.1877L32.9863 29.9346C30.4423 34.3413 25.706 37.322 20.2698 37.3814L20.1042 37.3824C14.5866 37.3824 9.77092 34.3739 7.20516 29.9061C5.95265 27.7249 5.23601 25.1963 5.23601 22.4998C5.23601 14.2807 11.8927 7.61758 20.1042 7.61758Z" fill="white"/>
</svg>
