<svg width="43" height="49" viewBox="0 0 43 49" fill="none" xmlns="http://www.w3.org/2000/svg">
<path d="M3.91194 44.1017L0 0H43L39.0828 44.0948L21.4739 49L3.91194 44.1017Z" fill="#1572B6"/>
<path d="M21.5001 45.2515L35.73 41.2878L39.0777 3.60676H21.5001V45.2515Z" fill="#33A9DC"/>
<path d="M21.5001 19.5843H28.6238L29.1149 14.0455H21.5001V8.63627H21.5192H34.9985L33.5476 24.9935H21.5001V19.5843Z" fill="white"/>
<path d="M21.5331 33.6315L21.5087 33.6385L15.5137 32.011L15.1305 27.6972H9.72589L10.4801 36.19L21.507 39.2665L21.5331 39.2595V33.6315Z" fill="#EBEBEB"/>
<path d="M28.1657 24.7642L27.5178 32.0075L21.514 33.635V39.263L32.5497 36.19L33.5669 24.7642H28.1657Z" fill="white"/>
<path d="M21.5192 8.63627L21.5192 14.0455H8.51536L8.0329 8.63627H21.5192Z" fill="#EBEBEB"/>
<path d="M21.5001 19.5843V24.9935L15.5799 24.9935L15.0992 19.5843L21.5001 19.5843Z" fill="#EBEBEB"/>
</svg>
