<svg width="52" height="52" viewBox="0 0 52 52" fill="none" xmlns="http://www.w3.org/2000/svg">
<path d="M50.6192 23.9778L28.5101 1.86987C27.2376 0.596598 25.1725 0.596598 23.8985 1.86987L19.3074 6.46095L25.1314 12.2849C26.4848 11.8276 28.0368 12.1344 29.1156 13.2132C30.1996 14.299 30.5042 15.8642 30.0358 17.222L35.6485 22.8349C37.0065 22.3671 38.5733 22.6698 39.6578 23.7561C41.1736 25.2713 41.1736 27.7271 39.6578 29.2432C38.1417 30.7596 35.6859 30.7596 34.1689 29.2432C33.0288 28.1019 32.7471 26.4275 33.3243 25.0229L28.09 19.7885L28.0894 33.5631C28.4688 33.7507 28.8154 33.9986 29.1156 34.297C30.6314 35.8122 30.6314 38.2681 29.1156 39.7855C27.5994 41.3011 25.1425 41.3011 23.6285 39.7855C22.1127 38.2681 22.1127 35.8124 23.6285 34.2972C23.9917 33.9337 24.4234 33.6459 24.8986 33.4504V19.5474C24.4227 19.3531 23.9908 19.0652 23.6285 18.7006C22.48 17.5537 22.2039 15.8686 22.7924 14.4584L17.0512 8.71673L1.89144 23.8756C0.617568 25.15 0.617568 27.2153 1.89144 28.4888L24.0009 50.5972C25.2738 51.8706 27.3385 51.8706 28.613 50.5972L50.619 28.5915C51.8925 27.3176 51.8927 25.2511 50.6192 23.9778Z" fill="#DE4C36"/>
</svg>
