<svg width="58" height="56" viewBox="0 0 58 56" fill="none" xmlns="http://www.w3.org/2000/svg">
<path d="M29.146 0.957397C13.5799 0.957397 0.95752 13.5891 0.95752 29.1715C0.95752 41.6374 9.03435 52.2131 20.2346 55.9439C21.6433 56.205 22.1606 55.3318 22.1606 54.5866C22.1606 53.9139 22.1343 51.6911 22.1223 49.3337C14.2801 51.0404 12.6253 46.0047 12.6253 46.0047C11.3431 42.7435 9.49552 41.8766 9.49552 41.8766C6.9381 40.1254 9.6883 40.1612 9.6883 40.1612C12.519 40.3604 14.0095 43.0688 14.0095 43.0688C16.5236 47.3822 20.6038 46.1351 22.2123 45.4144C22.4652 43.5906 23.1959 42.3461 24.0019 41.6416C17.741 40.928 11.1591 38.5087 11.1591 27.698C11.1591 24.6178 12.2603 22.1007 14.0636 20.1249C13.7709 19.4142 12.8061 16.5447 14.3367 12.6584C14.3367 12.6584 16.7037 11.9 22.0905 15.5505C24.3389 14.9251 26.7504 14.6118 29.146 14.6012C31.5415 14.6118 33.9548 14.9251 36.2076 15.5505C41.588 11.9 43.9517 12.6584 43.9517 12.6584C45.486 16.5447 44.5208 19.4142 44.2281 20.1249C46.0354 22.1007 47.129 24.6176 47.129 27.698C47.129 38.5344 40.5347 40.9207 34.2579 41.619C35.2689 42.4946 36.1698 44.2117 36.1698 46.8438C36.1698 50.6188 36.1371 53.6572 36.1371 54.5866C36.1371 55.3374 36.6444 56.2172 38.0735 55.9401C49.2675 52.2052 57.3342 41.6332 57.3342 29.1715C57.3342 13.5891 44.7135 0.957397 29.146 0.957397Z" fill="#161614"/>
<path d="M11.5151 41.149C11.4532 41.2891 11.2325 41.3311 11.032 41.2351C10.8275 41.143 10.7125 40.9519 10.7789 40.8111C10.8397 40.6669 11.0603 40.6266 11.2644 40.7235C11.4693 40.8153 11.586 41.0083 11.5151 41.149ZM12.9017 42.3873C12.7672 42.5121 12.5044 42.4541 12.326 42.257C12.1416 42.0602 12.1071 41.7974 12.2435 41.6706C12.3821 41.546 12.637 41.6042 12.8218 41.8011C13.0062 42.0001 13.0423 42.2612 12.9017 42.3873ZM13.8529 43.9716C13.6801 44.0918 13.3975 43.9792 13.2231 43.7282C13.0504 43.4775 13.0504 43.1766 13.2269 43.056C13.402 42.9354 13.6801 43.0438 13.8569 43.2928C14.0294 43.5479 14.0296 43.8486 13.8529 43.9716ZM15.4615 45.8067C15.307 45.9771 14.978 45.9315 14.737 45.6987C14.4908 45.4712 14.422 45.1484 14.577 44.9778C14.7333 44.807 15.0642 44.855 15.307 45.0858C15.5517 45.3128 15.6262 45.6381 15.4615 45.8067ZM17.5405 46.4263C17.4726 46.6471 17.1556 46.7476 16.8364 46.6538C16.5176 46.5571 16.3089 46.2982 16.3732 46.0749C16.4396 45.8525 16.7579 45.7478 17.0796 45.8483C17.3979 45.9446 17.6068 46.2015 17.5405 46.4263ZM19.9069 46.6889C19.9149 46.9217 19.6441 47.1147 19.3089 47.1189C18.9718 47.1262 18.6992 46.9379 18.6956 46.7091C18.6956 46.4741 18.9603 46.2829 19.2972 46.2774C19.6323 46.2707 19.9069 46.4577 19.9069 46.6889ZM22.2313 46.5998C22.2716 46.8268 22.0385 47.06 21.7058 47.122C21.3786 47.1817 21.0758 47.0417 21.034 46.8166C20.9933 46.5838 21.2307 46.3508 21.5573 46.2904C21.8906 46.2324 22.1889 46.369 22.2313 46.5998Z" fill="#161614"/>
</svg>
