<svg width="44" height="49" viewBox="0 0 44 49" fill="none" xmlns="http://www.w3.org/2000/svg">
<path d="M21.5389 14.3937H13.9219L14.4151 19.9208H21.5576V14.3937H21.5389Z" fill="#E44D26"/>
<path d="M0 0L3.92376 44.0093L21.5311 48.8973L39.1873 44.0024L43.1152 0H0ZM35.8245 41.2006L21.5576 45.1559V39.5546L21.5327 39.5615L10.4762 36.4922L9.72008 28.0173H15.1384L15.5227 32.3221L21.534 33.9454L21.539 33.9439L21.5576 33.9384V25.3184H9.47883L8.02304 8.9961H21.5576V3.5985H39.1811L35.8245 41.2006Z" fill="#E44D26"/>
<path d="M32.6042 36.4922L21.5576 39.5546V45.1559L35.8245 41.2006L39.1811 3.5985H21.5576V8.9961L35.06 8.996L34.5767 14.3937L21.5576 14.3937V19.9208L34.0855 19.9208L33.9538 21.3702L32.6042 36.4922Z" fill="#F16529"/>
<path d="M27.559 32.3186L28.1854 25.3183L21.5576 25.3184V33.9384L27.559 32.3186Z" fill="#F16529"/>
<path d="M14.4151 19.9208L13.9219 14.3937H21.5389L21.5389 8.99597L8.02304 8.9961L9.47883 25.3184L21.5389 25.3183V19.9208L14.4151 19.9208ZM21.5389 39.5589L21.539 33.9439L21.534 33.9454L15.5227 32.3221L15.1384 28.0173H9.72008L10.4762 36.4922L21.5327 39.5615L21.5576 39.5546L21.5389 39.5589Z" fill="#EBEBEB"/>
<path d="M27.559 32.3186L21.5576 33.9384L21.539 33.9439L21.5389 39.5589L21.5576 39.5546L32.6042 36.4922L33.9538 21.3702L34.0855 19.9208L21.5389 19.9208V25.3183L28.1854 25.3183L27.559 32.3186ZM21.5389 14.3804L21.5389 14.3937L34.5767 14.3937L35.06 8.996L21.5389 8.99597L21.5389 14.3804Z" fill="white"/>
</svg>
