<svg width="33" height="55" viewBox="0 0 33 55" fill="none" xmlns="http://www.w3.org/2000/svg">
<path d="M23.1611 48.0047H22.9565V47.7632H23.5074V48.0047H23.304V49.2101H23.1611V48.0047ZM24.2598 48.0677H24.2566L24.0537 49.2105H23.9609L23.7595 48.0677H23.7571V49.2105H23.6222V47.7636H23.8207L24.0074 48.7882L24.1936 47.7636H24.3913V49.2105H24.2597L24.2598 48.0677Z" fill="#E76F00"/>
<path d="M10.6528 35.3442C10.6528 35.3442 8.94275 36.3489 11.8698 36.6888C15.4158 37.0975 17.2282 37.0389 21.1359 36.2917C21.1359 36.2917 22.1633 36.9425 23.5981 37.5062C14.838 41.2991 3.77217 37.2865 10.6528 35.3442ZM9.58237 30.3947C9.58237 30.3947 7.66437 31.829 10.5936 32.1351C14.3816 32.5299 17.373 32.5622 22.5494 31.5552C22.5494 31.5552 23.2655 32.2885 24.3913 32.6895C13.7996 35.8183 2.00252 32.9362 9.58237 30.3947Z" fill="#5382A1"/>
<path d="M19.2093 22.2675C21.381 25.0216 18.6388 27.5 18.6388 27.5C18.6388 27.5 24.1529 24.3645 21.6206 20.438C19.2553 16.7762 17.4415 14.957 27.2609 8.68421C27.2609 8.68421 11.8476 12.9242 19.2093 22.2675Z" fill="#E76F00"/>
<path d="M30.1834 38.9445C30.1834 38.9445 31.4495 40.0102 28.789 40.8344C23.7301 42.3998 7.73331 42.8725 3.28947 40.8969C1.69202 40.187 4.68769 39.2019 5.63001 38.9952C6.61276 38.7775 7.17436 38.8181 7.17436 38.8181C5.39784 37.5398 -4.30836 41.328 2.2441 42.413C20.1136 45.373 34.8186 41.0801 30.1834 38.9445ZM11.457 25.0471C11.457 25.0471 3.32 27.0211 8.57548 27.738C10.7945 28.0415 15.2181 27.9728 19.3384 27.6202C22.7058 27.33 26.0873 26.7133 26.0873 26.7133C26.0873 26.7133 24.8999 27.2327 24.0408 27.8317C15.7779 30.0515 -0.184657 29.0188 4.41075 26.7483C8.29709 24.8294 11.457 25.0471 11.457 25.0471ZM26.0538 33.381C34.4534 28.9226 30.5699 24.6381 27.859 25.2154C27.1946 25.3567 26.8983 25.4791 26.8983 25.4791C26.8983 25.4791 27.1451 25.0844 27.616 24.9136C32.9787 22.9878 37.103 30.5934 25.8848 33.6058C25.8848 33.6058 26.015 33.4872 26.0538 33.381Z" fill="#5382A1"/>
<path d="M21.6213 0C21.6213 0 26.8255 4.66163 16.6853 11.8302C8.55392 17.5804 14.8311 20.8591 16.6819 24.6053C11.9356 20.7704 8.45241 17.3947 10.7892 14.2529C14.219 9.64095 23.7211 7.40491 21.6213 0Z" fill="#E76F00"/>
<path d="M12.1143 46.1717C20.2348 46.7 32.7048 45.8786 33 41.9737C33 41.9737 32.4324 43.4539 26.2888 44.6297C19.3579 45.9552 10.8093 45.8006 5.73913 44.951C5.73913 44.951 6.77718 45.8239 12.1143 46.1717Z" fill="#5382A1"/>
<path d="M14.6874 52.5057C14.3913 52.777 14.0786 52.9293 13.798 52.9293C13.3974 52.9293 13.181 52.6756 13.181 52.2685C13.181 51.8282 13.4129 51.5063 14.3431 51.5063H14.6873L14.6874 52.5057ZM15.5043 53.4796V50.4648C15.5043 49.6946 15.0886 49.1865 14.0863 49.1865C13.5011 49.1865 12.9886 49.3391 12.572 49.5339L12.6922 50.0675C13.0202 49.9403 13.4448 49.8219 13.8616 49.8219C14.439 49.8219 14.6874 50.0675 14.6874 50.5753V50.9564H14.3992C12.9963 50.9564 12.3635 51.5318 12.3635 52.3954C12.3635 53.1408 12.7805 53.5645 13.5657 53.5645C14.0705 53.5645 14.4472 53.3443 14.7994 53.022L14.8634 53.4797L15.5043 53.4796ZM18.2308 53.4796H17.2119L15.9856 49.2628H16.8755L17.6364 51.8536L17.8055 52.6328C18.1905 51.5062 18.4628 50.3633 18.5989 49.2628H19.4645C19.2326 50.6513 18.8152 52.1755 18.2308 53.4796ZM22.1397 52.5057C21.843 52.777 21.5298 52.9293 21.2491 52.9293C20.8493 52.9293 20.6323 52.6756 20.6323 52.2685C20.6323 51.8282 20.8647 51.5063 21.7948 51.5063H22.1397V52.5057ZM22.9565 53.4796V50.4648C22.9565 49.6946 22.5398 49.1865 21.5386 49.1865C20.9531 49.1865 20.4403 49.3391 20.0239 49.5339L20.144 50.0675C20.4721 49.9403 20.8975 49.8219 21.3139 49.8219C21.8909 49.8219 22.1397 50.0675 22.1397 50.5753V50.9564H21.851C20.4477 50.9564 19.8151 51.5318 19.8151 52.3954C19.8151 53.1408 20.2318 53.5645 21.0169 53.5645C21.522 53.5645 21.8986 53.3443 22.2514 53.022L22.3155 53.4797L22.9565 53.4796ZM11.4677 54.1956C11.2348 54.5549 10.8587 54.8392 10.4468 55L10.0435 54.4985C10.3569 54.3285 10.6258 54.0541 10.7507 53.7984C10.8587 53.5711 10.9034 53.278 10.9034 52.5773V47.7632H11.7714V52.5113C11.7713 53.4481 11.7005 53.8266 11.4677 54.1956Z" fill="#E76F00"/>
</svg>
