<svg width="52" height="36" viewBox="0 0 52 36" fill="none" xmlns="http://www.w3.org/2000/svg">
<path d="M21.0744 23.5029C20.2786 27.8027 19.2294 30.9309 17.9267 32.8743C16.9116 34.3765 15.7997 35.1276 14.5889 35.1276C14.2659 35.1276 13.8683 35.0308 13.3956 34.8385V33.8011C13.626 33.8357 13.8969 33.853 14.2081 33.853C14.7727 33.853 15.2281 33.6981 15.5748 33.3875C15.9898 33.0092 16.1972 32.5845 16.1972 32.1136C16.1972 31.7919 16.035 31.1314 15.7127 30.1327L13.5682 23.5001H15.4878L17.0265 28.4611C17.3725 29.5871 17.5166 30.3734 17.4588 30.8216C18.3013 28.5821 18.8889 26.1421 19.2231 23.5042H21.0737M12.6005 32.0804H10.6468C10.5779 28.7952 10.3878 25.7071 10.0759 22.8126H10.0599L7.08484 32.0804H5.59627L2.63934 22.8126H2.62193C2.40262 25.5916 2.26476 28.6797 2.20697 32.0804H0.425293C0.540173 27.9458 0.829113 24.0714 1.28933 20.4542H3.71085L6.52993 28.9957H6.54734L9.38383 20.4542H11.7009C12.2078 24.6911 12.5079 28.5669 12.5991 32.0804" fill="#00758F"/>
<path d="M47.086 32.079H41.5348V20.4528H43.4029V30.6473H47.086V32.0776M33.1263 29.7517C32.6529 28.9936 32.4169 27.7778 32.4169 26.1006C32.4169 23.173 33.3108 21.7081 35.0974 21.7081C36.0317 21.7081 36.7175 22.0588 37.1555 22.7587C37.6275 23.5167 37.8643 24.7229 37.8643 26.3765C37.8643 29.3277 36.9703 30.8043 35.1837 30.8043C34.2501 30.8043 33.5636 30.4543 33.1263 29.753M40.0783 32.3591L37.9325 31.305C38.1233 31.1487 38.305 30.98 38.4686 30.7863C39.3807 29.7192 39.836 28.1402 39.836 26.0494C39.836 22.2026 38.3196 20.2785 35.2875 20.2785C33.8003 20.2785 32.6411 20.7661 31.8111 21.7434C30.8991 22.8112 30.4444 24.3854 30.4444 26.463C30.4444 28.5067 30.8482 30.0062 31.6545 30.9585C32.3897 31.8196 33.5016 32.2505 34.9909 32.2505C35.5465 32.2505 36.0561 32.1827 36.5191 32.0465L39.3131 33.6662L40.0748 32.3591M29.6312 28.856C29.6312 29.8423 29.2678 30.6515 28.5423 31.285C27.8168 31.9151 26.8414 32.2318 25.6209 32.2318C24.479 32.2318 23.372 31.8673 22.2998 31.146L22.8018 30.1473C23.7243 30.6065 24.5591 30.8354 25.3082 30.8354C26.0115 30.8354 26.5615 30.6798 26.9597 30.372C27.3566 30.0615 27.5954 29.6292 27.5954 29.0808C27.5954 28.3905 27.1115 27.8006 26.2252 27.3054C25.4038 26.8502 24.5855 26.3895 23.7703 25.9235C22.8839 25.2789 22.439 24.588 22.439 23.4496C22.439 22.5076 22.7705 21.7461 23.4326 21.1673C24.0961 20.5863 24.9525 20.2958 26.001 20.2958C27.0851 20.2958 28.0702 20.5842 28.9579 21.159L28.5068 22.157C27.7479 21.8361 26.9987 21.6749 26.26 21.6749C25.6612 21.6749 25.1989 21.8188 24.8773 22.1065C24.5535 22.3921 24.3537 22.7601 24.3537 23.2082C24.3537 23.8971 24.848 24.4946 25.7594 24.9995C26.5879 25.447 28.2652 26.3994 28.2652 26.3994C29.1773 27.0426 29.6319 27.728 29.6319 28.8574M48.4158 32.079H48.7256V30.8963H49.1301V30.6542H47.9953V30.8963H48.4158V32.079ZM50.7712 32.079H51.0629V30.6542H50.6243L50.2671 31.6253L49.8779 30.6542H49.4553V32.079H49.7317V30.9945H49.747L50.1543 32.079H50.3646L50.7712 30.9945V32.079Z" fill="#F29111"/>
<path d="M31.5598 0.873698C31.0662 0.866782 30.6359 1.05144 30.4138 1.59437C30.0329 2.508 30.9777 3.40642 31.3029 3.87049C31.5424 4.19348 31.8529 4.55935 32.0214 4.92383C32.1203 5.16244 32.1488 5.41627 32.2477 5.66871C32.4733 6.28702 32.6842 6.97518 32.9808 7.552C33.1354 7.84732 33.3046 8.15647 33.5023 8.42206C33.6158 8.57767 33.8128 8.64683 33.8553 8.90066C33.6583 9.18076 33.6429 9.60265 33.5309 9.95469C33.0226 11.542 33.2203 13.5089 33.9395 14.675C34.1651 15.0257 34.7012 15.7989 35.4212 15.5036C36.0561 15.2511 35.9155 14.4502 36.0979 13.7482C36.1404 13.5781 36.1118 13.4667 36.1968 13.354V13.3831C36.3938 13.7759 36.5922 14.1542 36.7753 14.5491C37.2133 15.2366 37.9743 15.9531 38.6092 16.4303C38.9469 16.6842 39.215 17.1192 39.6383 17.2741V17.2312H39.6104C39.5255 17.1054 39.3988 17.0487 39.286 16.9511C39.0319 16.698 38.7506 16.3888 38.5528 16.1074C37.961 15.3217 37.4382 14.4502 36.9738 13.5511C36.7475 13.1147 36.5504 12.6375 36.3666 12.2025C36.2824 12.0344 36.2824 11.7806 36.1411 11.6969C35.9287 12.0053 35.6189 12.273 35.4643 12.6506C35.1963 13.2558 35.1684 14 35.0689 14.7725C35.0131 14.787 35.041 14.7725 35.0132 14.8002C34.562 14.6881 34.4067 14.2248 34.2368 13.8319C33.8135 12.8339 33.7425 11.2314 34.1101 10.0806C34.2076 9.78593 34.6323 8.85916 34.4624 8.57767C34.3775 8.30932 34.0955 8.15578 33.9402 7.94484C33.7437 7.66133 33.574 7.36034 33.4334 7.04573C33.095 6.25935 32.9251 5.38791 32.5589 4.60154C32.3897 4.23498 32.0924 3.85666 31.8536 3.51984C31.5849 3.14014 31.2897 2.87318 31.0773 2.42431C31.0077 2.26939 30.9088 2.01626 31.0216 1.84819C31.0488 1.73546 31.1058 1.69327 31.2193 1.66491C31.4011 1.51068 31.9239 1.70641 32.107 1.79079C32.6292 2.00104 33.0665 2.19884 33.503 2.49278C33.7 2.63387 33.9117 2.90084 34.1658 2.97139H34.4624C34.9136 3.0696 35.4218 2.99905 35.8452 3.12562C36.5922 3.36423 37.269 3.71557 37.8761 4.09458C39.7446 5.2814 41.2628 6.93934 42.2756 8.89927C42.4455 9.22226 42.5165 9.51758 42.6711 9.85371C42.9677 10.544 43.3346 11.2459 43.6305 11.9196C43.9264 12.5801 44.2091 13.2544 44.6331 13.8022C44.8434 14.0968 45.69 14.2517 46.0708 14.406C46.3528 14.5318 46.7901 14.6446 47.0442 14.7988C47.5246 15.0934 48.0022 15.4309 48.4541 15.7546C48.6797 15.9234 49.3843 16.274 49.4267 16.5555C48.2988 16.5279 47.4243 16.6399 46.6905 16.9497C46.4795 17.0334 46.1412 17.0334 46.1126 17.3004C46.2261 17.4124 46.2393 17.595 46.3389 17.75C46.5081 18.0314 46.8033 18.4098 47.072 18.6076C47.3686 18.8323 47.6645 19.0564 47.9751 19.2528C48.5251 19.5917 49.1454 19.7875 49.6809 20.1243C49.9921 20.3207 50.3019 20.5738 50.6124 20.7848C50.767 20.8968 50.8652 21.0801 51.0636 21.1493V21.1064C50.964 20.9805 50.9362 20.7979 50.838 20.6568C50.6974 20.5171 50.556 20.3906 50.4147 20.2502C50.0015 19.7061 49.507 19.228 48.9484 18.8323C48.4966 18.5218 47.5086 18.0999 47.3262 17.5819L47.2976 17.5535C47.6075 17.5252 47.9751 17.4124 48.2717 17.3274C48.75 17.2008 49.1879 17.2292 49.6815 17.1033C49.9071 17.0466 50.1327 16.976 50.3597 16.9076V16.7796C50.1042 16.5279 49.9218 16.1897 49.6544 15.951C48.9359 15.3334 48.145 14.7296 47.3269 14.2227C46.8882 13.9419 46.3243 13.76 45.8592 13.5207C45.6907 13.4363 45.4087 13.3948 45.3092 13.2537C45.0557 12.9446 44.9137 12.5379 44.7313 12.172C44.3143 11.3721 43.9285 10.5566 43.5748 9.72715C43.3207 9.17938 43.1654 8.63231 42.8556 8.12604C41.4019 5.73718 39.8228 4.291 37.3971 2.87179C36.8749 2.57647 36.2545 2.4499 35.5924 2.29567C35.2387 2.28115 34.8871 2.25417 34.5341 2.24034C34.3079 2.14075 34.0816 1.87378 33.8845 1.74722C33.3819 1.43114 32.3834 0.884764 31.5612 0.872314L31.5598 0.873698ZM35.0396 4.34633C34.8001 4.34633 34.6316 4.37538 34.4617 4.41687V4.44454H34.4889C34.6024 4.66932 34.8001 4.82493 34.94 5.02135C35.0535 5.24613 35.1524 5.47021 35.2652 5.69499L35.293 5.66733C35.4915 5.52693 35.5903 5.30215 35.5903 4.96464C35.5047 4.86574 35.4915 4.76822 35.4205 4.66932C35.3362 4.52961 35.1524 4.45906 35.0396 4.34633Z" fill="#00758F"/>
</svg>
