<svg width="55" height="45" viewBox="0 0 55 45" fill="none" xmlns="http://www.w3.org/2000/svg">
<path d="M37.2972 14.6373L31.3743 16.5693L26.2157 18.8379L24.7754 19.2184C24.408 19.5697 24.0258 19.9209 23.5996 20.2722C23.144 20.6674 22.7178 21.0187 22.3945 21.2821C22.027 21.5748 21.4979 22.1017 21.2187 22.4384C20.8072 22.9506 20.4838 23.4922 20.3516 23.902C20.1017 24.6484 20.2193 25.4095 20.7043 26.112C21.3069 27.0048 22.5267 27.9123 23.9376 28.527C24.6578 28.849 25.8777 29.2442 26.7889 29.4783C28.3027 29.8589 31.2421 30.2833 32.8587 30.3419C33.1821 30.3565 33.623 30.3565 33.6377 30.3419C33.6671 30.3126 33.9316 29.8442 34.2109 29.2442C35.2103 27.2244 35.9157 25.3217 36.3125 23.7117C36.5477 22.7311 36.724 21.4285 36.8563 19.877C36.8857 19.438 36.9004 17.989 36.871 17.506C36.8269 16.701 36.7534 16.057 36.6506 15.413C36.6359 15.3252 36.6212 15.2374 36.6359 15.2374C36.6506 15.2228 36.7094 15.2081 37.4442 15.0032L37.2972 14.6373ZM35.9451 15.4277C36.0039 15.4277 36.1362 16.8035 36.1803 17.667C36.195 17.8426 36.1803 17.9743 36.1803 17.9743C36.1509 17.9743 35.4307 17.5499 34.9016 17.2279C34.4607 16.9498 33.6083 16.379 33.476 16.2766C33.4319 16.2473 33.4319 16.2473 33.7993 16.1156C34.4166 15.896 35.8863 15.4277 35.9451 15.4277ZM32.9175 16.4229C32.9616 16.4229 33.0645 16.4815 33.3143 16.6278C34.2402 17.1986 35.4895 17.9012 36.0333 18.1353C36.195 18.2085 36.2097 18.1792 35.8422 18.4427C35.0339 18.9989 34.0051 19.5404 32.7706 20.0819C32.5501 20.1844 32.3737 20.2576 32.359 20.2576C32.3443 20.2576 32.3737 20.1405 32.4178 20.0088C32.7118 18.8964 32.8881 17.7694 32.9028 16.8766C32.8734 16.4229 32.8734 16.4229 32.9175 16.4229ZM32.3002 16.6571C32.3296 16.6864 32.3149 17.6816 32.2709 17.9597C32.1974 18.6037 32.0651 19.2184 31.8593 19.9063C31.8152 20.0673 31.7712 20.2137 31.7565 20.2137C31.7418 20.2429 31.1245 19.6429 30.9187 19.4087C30.566 19.0135 30.3015 18.6037 30.0957 18.2085C29.9928 18.0036 29.8311 17.6084 29.8458 17.6084C29.9193 17.5499 32.2856 16.6425 32.3002 16.6571ZM29.3755 17.7987C29.4049 17.8133 29.4343 17.8865 29.449 17.9597C29.596 18.3549 29.9193 18.9257 30.1986 19.277C30.5072 19.6721 30.904 20.1112 31.2274 20.3893C31.3302 20.4771 31.4331 20.5649 31.4478 20.5796C31.4772 20.6088 31.4772 20.6088 30.7571 20.8723C29.9046 21.1943 28.9934 21.5163 27.9352 21.8529C27.6854 21.9407 27.4355 22.0139 27.1857 22.1017C27.1416 22.1164 27.1563 22.0871 27.2739 21.9115C27.803 21.0918 28.5966 19.4965 29.0375 18.3549C29.111 18.1646 29.1845 17.9597 29.1992 17.9158C29.2139 17.8573 29.2433 17.828 29.3021 17.7987C29.3314 17.8133 29.3608 17.7987 29.3755 17.7987ZM28.479 18.1646C28.4937 18.1793 28.2586 18.6476 28.0381 19.0867C27.5972 19.9356 27.1269 20.7552 26.4949 21.7651C26.392 21.9407 26.2892 22.1017 26.2745 22.1164C26.2451 22.1456 26.2451 22.1456 26.1716 21.9993C26.0246 21.7066 25.8923 21.3114 25.8336 20.9601C25.7601 20.6088 25.7748 20.0088 25.863 19.6282C25.9217 19.3501 25.9217 19.3501 26.054 19.2916C26.5978 19.0135 28.4496 18.15 28.479 18.1646ZM36.195 18.4866V18.6769C36.195 19.6721 36.0921 21.0333 35.9304 22.0286C35.901 22.2042 35.8863 22.3505 35.8716 22.3505C35.8716 22.3505 35.7393 22.3213 35.5924 22.2774C34.9163 22.0725 34.1962 21.7651 33.5348 21.3992C33.0939 21.165 32.4619 20.7698 32.4913 20.7552C32.4913 20.7552 32.6824 20.6528 32.9028 20.5357C33.7846 20.0819 34.6224 19.5843 35.3572 19.1013C35.6365 18.9257 36.048 18.6183 36.1362 18.5452L36.195 18.4866ZM25.0987 19.8039C25.1134 19.8039 25.1134 19.8331 25.084 19.9941C25.0693 20.1112 25.0399 20.3308 25.0399 20.4771C25.0105 21.1211 25.1134 21.6041 25.4367 22.2627C25.5249 22.4384 25.5984 22.5994 25.5984 22.5994C25.569 22.6286 22.6002 23.4922 21.6743 23.741C21.3951 23.8142 21.1599 23.8873 21.1305 23.8873C21.1011 23.902 21.1011 23.8873 21.1011 23.8142C21.204 23.1555 21.7037 22.3066 22.4092 21.5748C22.8795 21.0918 23.2469 20.8138 23.8789 20.4479C24.3345 20.2137 25.0252 19.8185 25.0987 19.8039C25.084 19.8039 25.084 19.8039 25.0987 19.8039ZM32.0798 21.0479C32.0798 21.0479 32.1974 21.1065 32.3149 21.1797C33.2703 21.7358 34.6077 22.2481 35.7393 22.5115L35.8422 22.5408L35.6953 22.614C35.0927 22.9506 33.138 23.7556 31.1392 24.5021C30.8452 24.6045 30.566 24.7216 30.5072 24.7362C30.4484 24.7655 30.4043 24.7655 30.4043 24.7655C30.4043 24.7655 30.4778 24.6045 30.5807 24.4142C31.1392 23.3751 31.6977 22.1017 31.9916 21.2236C32.0504 21.1211 32.0798 21.0479 32.0798 21.0479ZM31.3743 21.2821C31.3743 21.2821 31.3449 21.3846 31.3009 21.487C30.904 22.4237 30.4043 23.4483 29.743 24.6045C29.5813 24.8972 29.4343 25.1314 29.4343 25.1314C29.4343 25.1314 29.3021 25.0582 29.1404 24.9558C28.1851 24.3703 27.3474 23.6678 26.8036 22.9653L26.7301 22.8628L27.1416 22.7457C28.5966 22.3505 29.8458 21.9261 31.0804 21.3992C31.2127 21.3407 31.3596 21.2821 31.3743 21.2821ZM35.7981 22.8189C35.7981 22.9214 35.5777 23.8434 35.3866 24.5021C35.225 25.0582 35.0927 25.4973 34.8428 26.273C34.7399 26.6097 34.6371 26.8878 34.6371 26.8878C34.6371 26.8878 34.6077 26.8878 34.5783 26.8731C33.2556 26.6389 32.0504 26.3023 30.9334 25.8486C30.6248 25.7169 30.1692 25.5266 30.1398 25.4973C30.1251 25.4827 30.4043 25.3656 30.7424 25.2192C32.7852 24.3264 34.8869 23.3312 35.6218 22.8921C35.71 22.8482 35.7834 22.8189 35.7981 22.8189ZM25.5837 23.1702C25.5984 23.1848 25.0252 23.9898 24.2316 25.1021C23.9523 25.4973 23.629 25.951 23.5114 26.112C23.3939 26.2877 23.2028 26.5511 23.0999 26.7121L22.9089 27.0048L22.7031 26.8292C22.4679 26.6389 22.0564 26.2145 21.8654 25.9803C21.4832 25.4973 21.2187 24.9997 21.1158 24.546C21.0717 24.3264 21.0717 24.224 21.1158 24.2093C21.1893 24.1947 22.3798 23.9166 23.4967 23.6532C24.114 23.5068 24.8342 23.3458 25.0987 23.2726C25.3633 23.2141 25.569 23.1702 25.5837 23.1702ZM26.1569 23.3897L26.3039 23.5507C26.9505 24.2679 27.6119 24.7948 28.4055 25.2631C28.5525 25.3363 28.6554 25.4095 28.6407 25.4241C28.6113 25.4534 25.8777 26.4194 24.599 26.8438C23.8936 27.0927 23.3057 27.2976 23.291 27.2976L23.2028 27.239L23.1293 27.1805L23.2616 26.9902C23.6878 26.3901 24.2169 25.7169 25.3633 24.3411L26.1569 23.3897ZM29.7283 25.9364C29.7283 25.9364 29.934 26.0096 30.1692 26.0974C30.7571 26.3169 31.2127 26.4487 31.8299 26.6097C32.5942 26.7999 33.6965 26.9902 34.3431 27.0487C34.446 27.0634 34.4901 27.0634 34.4754 27.078C34.446 27.0927 33.7846 27.3122 33.2996 27.4732C32.5354 27.7074 30.1839 28.4099 28.2586 28.9514C27.9058 29.0539 27.5972 29.1417 27.5825 29.1417C27.5384 29.1564 27.3914 29.1124 27.3914 29.0978C27.3914 29.0832 27.4943 28.9514 27.6266 28.8051C28.2733 28.044 28.9052 27.1805 29.449 26.3755C29.596 26.112 29.7283 25.9364 29.7283 25.9364ZM28.9346 25.951C28.9346 25.951 28.626 26.4633 28.0675 27.3415C27.8324 27.7074 27.5678 28.1318 27.4649 28.2782C27.3767 28.4245 27.2445 28.6441 27.171 28.7758L27.0387 29.01L26.9652 28.9954C26.8036 28.9514 25.6719 28.5563 25.378 28.4392C25.0105 28.2928 24.6284 28.1172 24.3345 27.9562C23.9817 27.7659 23.5261 27.4732 23.5702 27.4732C23.5849 27.4732 24.1875 27.2976 24.937 27.1073C26.8917 26.5804 27.9793 26.273 28.6995 26.0389C28.8171 25.9803 28.9346 25.951 28.9346 25.951ZM34.5048 27.2537C34.5342 27.2976 33.7993 29.3027 33.5348 29.9321C33.476 30.0784 33.4613 30.1077 33.4172 30.1077C33.3437 30.1077 32.2856 29.9613 31.6536 29.8589C30.5366 29.6833 28.6701 29.3613 28.1998 29.2588L28.0969 29.2295L28.7583 29.0832C30.1986 28.7612 30.8746 28.5855 31.5801 28.3806C32.4619 28.1172 33.329 27.7806 34.2109 27.3707C34.3578 27.3122 34.4754 27.2537 34.5048 27.2537Z" fill="url(#paint0_linear_145_390)"/>
<path d="M31.1832 0.893953C31.0803 0.879317 29.493 1.45013 28.4642 1.85994C27.0827 2.41611 26.0098 2.95765 25.3485 3.426C25.0986 3.60164 24.79 3.909 24.7459 4.02609C24.7312 4.06999 24.7165 4.12854 24.7165 4.17245L25.3191 4.74326L26.7447 5.19698L30.1397 5.79706L34.0197 6.45568L34.0638 6.11905H34.0344L33.52 6.04587L33.4171 5.87024C32.888 4.94816 32.3001 3.79191 31.9621 3.01619C31.6976 2.41611 31.4477 1.71358 31.3154 1.21595C31.242 0.908588 31.2273 0.893953 31.1832 0.893953ZM31.1097 1.11349C31.1244 1.11349 31.1391 1.24522 31.1538 1.39158C31.2273 2.02094 31.3742 2.62102 31.5947 3.26501C31.7564 3.76263 31.7564 3.73336 31.5653 3.67482C31.1097 3.54309 29.0668 3.19183 27.5824 2.98692C27.3473 2.95765 27.1415 2.92838 27.1415 2.91374C27.1268 2.8991 28.2144 2.32829 28.6847 2.10875C29.302 1.83067 30.9921 1.14277 31.1097 1.11349ZM26.7888 3.11864L26.9651 3.17719C27.9204 3.49918 30.3014 3.9529 31.6241 4.05536C31.7711 4.06999 31.9033 4.08463 31.9033 4.08463C31.9033 4.08463 31.7858 4.15781 31.6241 4.23099C30.9921 4.55299 30.2867 4.93353 29.8017 5.24088C29.6547 5.3287 29.5224 5.40188 29.5077 5.40188C29.493 5.40188 29.3901 5.38725 29.302 5.37261L29.1256 5.34334L28.6847 4.90425C27.891 4.14317 27.2738 3.55773 27.0386 3.32355L26.7888 3.11864ZM26.6124 3.25037L27.2444 4.04072C27.5824 4.47981 27.9351 4.88962 28.0086 4.99207C28.0821 5.07989 28.1409 5.1677 28.1409 5.1677C28.1262 5.18234 27.2297 5.00671 26.7594 4.90425C26.2744 4.78716 26.0686 4.74326 25.7747 4.6408L25.5248 4.56762V4.50908C25.5248 4.21635 25.9069 3.76264 26.5536 3.30891L26.6124 3.25037ZM31.9768 4.31881C31.9915 4.31881 32.0209 4.36272 32.065 4.47981C32.212 4.81644 32.697 5.70924 32.8145 5.88488C32.8439 5.94342 32.9174 5.94342 32.2854 5.84097C30.7717 5.59215 30.2867 5.51897 30.2867 5.50434C30.2867 5.50434 30.3307 5.47506 30.3895 5.43115C30.8598 5.1677 31.3301 4.84571 31.7564 4.49444C31.8592 4.40663 31.9474 4.33344 31.9768 4.31881Z" fill="url(#paint1_linear_145_390)"/>
<path d="M24.7754 3.95291C24.7754 3.95291 24.6725 4.11391 24.7754 4.34809C24.8342 4.49445 25.0105 4.67008 25.2016 4.84572C25.2016 4.84572 27.2004 6.77769 27.4355 7.05578C28.5378 8.32912 29.0228 9.57319 29.0669 11.2856C29.0963 12.398 28.8905 13.3639 28.3615 14.4909C27.4355 16.5107 25.4661 18.75 22.4386 21.2236L22.8795 21.0772C23.1587 20.8577 23.5555 20.6381 24.4667 20.1405C26.5831 18.9842 28.9493 17.9304 31.8593 16.8473C36.048 15.2813 42.9409 13.4371 46.865 12.837L47.2765 12.7785L47.2177 12.6761C46.865 12.1199 46.6151 11.7832 46.3212 11.4173C45.4688 10.3489 44.4253 9.50001 43.1466 8.78284C41.3977 7.80222 39.1197 7.04114 36.239 6.47033C35.6953 6.36788 34.5048 6.16297 33.5348 6.01661C31.4772 5.69461 30.1545 5.47507 28.6995 5.22626C28.1704 5.13844 27.3915 5.00672 26.8771 4.88963C26.6125 4.83108 26.0981 4.71399 25.6866 4.56763C25.3339 4.46518 24.8783 4.33345 24.7754 3.95291ZM25.9364 5.0799C25.9364 5.0799 26.0099 5.10917 26.1128 5.13844C26.2892 5.19698 26.5096 5.27017 26.7595 5.32871C26.9505 5.38726 27.1563 5.43116 27.3474 5.48971C27.6119 5.56289 27.8471 5.62143 27.8471 5.62143C27.8764 5.65071 28.3321 7.09968 28.479 7.64122C28.5378 7.84613 28.5819 8.0364 28.5819 8.0364C28.5819 8.0364 28.5231 7.96322 28.4643 7.86076C27.9352 6.93869 27.1122 6.01661 26.1569 5.25553C26.0246 5.15308 25.9364 5.0799 25.9364 5.0799ZM28.141 5.67998C28.1704 5.67998 28.2586 5.69461 28.3762 5.72389C29.1404 5.89952 30.5072 6.14833 31.3743 6.29469C31.5213 6.32397 31.6389 6.3386 31.6389 6.35324C31.6389 6.36788 31.5801 6.39715 31.5213 6.42642C31.3743 6.4996 30.7718 6.85087 30.5807 6.98259C30.081 7.31923 29.6401 7.67049 29.3168 7.99249L29.0816 8.22667C29.0816 8.22667 29.0522 8.15348 29.0375 8.05103C28.8758 7.43631 28.5378 6.51424 28.2292 5.87025C28.1704 5.78243 28.1263 5.67998 28.141 5.67998C28.1263 5.67998 28.1263 5.67998 28.141 5.67998ZM32.0063 6.41178C32.0357 6.42642 32.0798 6.57278 32.168 6.90941C32.3296 7.5534 32.4031 8.28521 32.3884 8.95847C32.3737 9.14874 32.3737 9.32438 32.359 9.33901L32.3443 9.38292L32.1092 9.30974C31.6242 9.16338 30.8452 8.9292 30.1839 8.73893C29.8018 8.63648 29.4931 8.54866 29.4931 8.53402C29.4931 8.50475 30.0516 7.94858 30.2868 7.74367C30.7424 7.3485 31.9769 6.39715 32.0063 6.41178ZM32.3149 6.45569C32.3296 6.44106 34.1668 6.76305 35.0045 6.92405C35.6218 7.04114 36.533 7.23141 36.5918 7.26068C36.6212 7.27532 36.5183 7.31923 36.2244 7.45095C35.0486 7.97785 34.1668 8.46084 33.285 9.03165C33.0498 9.17801 32.8587 9.30974 32.8587 9.30974C32.8587 9.30974 32.844 9.17801 32.844 9.03165C32.844 8.18276 32.6677 7.33386 32.359 6.60205C32.3443 6.52887 32.3149 6.47033 32.3149 6.45569ZM37.0768 7.3924C37.0915 7.40704 37.0327 7.77294 36.9739 7.97785C36.8122 8.63648 36.3713 9.63173 35.8422 10.5538C35.754 10.7148 35.6659 10.8465 35.6512 10.8612C35.6365 10.8612 35.5189 10.8026 35.3866 10.7148C34.8722 10.4075 34.2697 10.1294 33.6377 9.86591C33.4613 9.79273 33.2996 9.73419 33.2996 9.71955C33.2703 9.69028 34.7106 8.73893 35.4748 8.28521C36.0774 7.91931 37.0621 7.37777 37.0768 7.3924ZM37.4148 7.45095C37.4589 7.45095 38.2672 7.67049 38.6935 7.80222C39.7516 8.10958 40.9568 8.54866 41.7357 8.91456L42.0591 9.06093L41.8239 9.11947C39.8986 9.55855 38.2525 10.0708 36.6653 10.7148C36.533 10.7734 36.4154 10.8173 36.4154 10.8173C36.4007 10.8173 36.4448 10.7148 36.5036 10.5831C36.9886 9.57319 37.2972 8.51939 37.3707 7.61195C37.4001 7.52413 37.4148 7.45095 37.4148 7.45095ZM29.3021 9.30974C29.3168 9.2951 29.934 9.44147 30.2721 9.54392C30.7865 9.69028 31.8593 10.0415 31.8593 10.0708C31.8593 10.0708 31.7418 10.1733 31.5948 10.305C31.0069 10.788 30.4484 11.3003 29.7724 11.9589C29.5666 12.1491 29.4049 12.3101 29.3902 12.3101C29.3755 12.3101 29.3755 12.2809 29.3755 12.2516C29.4784 11.5052 29.449 10.5392 29.3168 9.55855C29.3168 9.41219 29.3021 9.30974 29.3021 9.30974ZM42.3824 9.32438C42.3971 9.33901 42.0885 9.79273 41.9121 10.0562C41.6475 10.4367 41.2507 10.949 40.3542 12.0613C39.8839 12.6468 39.3548 13.32 39.1784 13.5396C39.0021 13.7591 38.8551 13.9494 38.8404 13.9494C38.8404 13.9494 38.7816 13.8762 38.7081 13.7738C38.2085 13.0273 37.6059 12.3687 36.9004 11.7832C36.7681 11.6662 36.6212 11.5491 36.5624 11.5198C36.5183 11.4905 36.4742 11.4466 36.4742 11.4466C36.4742 11.432 37.2384 11.11 37.8116 10.8758C38.8257 10.466 40.2072 9.96836 41.236 9.66101C41.7945 9.47074 42.3824 9.30974 42.3824 9.32438ZM42.7351 9.41219C42.7498 9.41219 42.8674 9.4561 42.985 9.54392C44.0726 10.1586 45.1454 10.9636 45.9832 11.7832C46.2183 12.0174 46.8062 12.6175 46.7915 12.6321C46.7915 12.6321 46.5857 12.6468 46.3506 12.6614C44.4694 12.8078 42.0591 13.203 39.7369 13.7591C39.5753 13.7884 39.443 13.8323 39.4283 13.8323C39.4136 13.8323 39.59 13.6567 39.8104 13.4518C41.1772 12.1492 41.7945 11.3149 42.5294 9.85128C42.6322 9.60246 42.7204 9.42683 42.7351 9.41219C42.7204 9.41219 42.7204 9.41219 42.7351 9.41219ZM32.7559 10.4221C32.8146 10.4367 33.4025 10.7148 33.8434 10.9197C34.2403 11.1246 34.8575 11.4466 34.8869 11.4613C34.8869 11.4613 34.6812 11.5783 34.4166 11.7101C33.5789 12.1345 32.8587 12.5297 32.0945 12.9834C31.874 13.1151 31.6977 13.2176 31.6977 13.2176C31.683 13.2176 31.683 13.203 31.8006 12.9834C32.1974 12.2516 32.5207 11.3734 32.7118 10.5245C32.7265 10.466 32.7412 10.4221 32.7559 10.4221ZM32.1827 10.5392C32.1974 10.5538 32.0504 11.0953 31.9475 11.4027C31.7712 11.9735 31.4478 12.676 31.1539 13.2176C31.0804 13.3493 30.9775 13.5249 30.9187 13.6274L30.8012 13.803L30.5513 13.5689C30.2574 13.2908 30.0222 13.1151 29.7136 12.9541C29.596 12.8956 29.4931 12.837 29.4931 12.8224C29.4931 12.7931 30.2574 12.0906 30.8452 11.593C31.2715 11.2271 32.168 10.5245 32.1827 10.5392ZM35.7393 11.9882L35.9598 12.1345C36.4595 12.4565 37.0474 12.8956 37.503 13.2761C37.7528 13.481 38.2525 13.9201 38.3554 14.0372L38.4142 14.0958L38.0468 14.1982C35.9892 14.769 34.4166 15.2666 32.5648 15.9399C32.359 16.0131 32.1827 16.0716 32.168 16.0716C32.1386 16.0716 32.1239 16.1009 32.5795 15.6765C33.7553 14.5934 34.8134 13.3932 35.5924 12.237L35.7393 11.9882ZM34.7987 12.2223C34.8134 12.237 34.1962 13.0859 33.8287 13.5835C33.3878 14.1689 32.6089 15.1349 32.0798 15.7643C31.8593 16.0277 31.6683 16.2473 31.6536 16.2473C31.6389 16.2473 31.6389 16.1887 31.6389 16.0863C31.6389 15.5447 31.5066 14.9739 31.2568 14.4763C31.1539 14.2714 31.1392 14.2275 31.1539 14.1982C31.2421 14.125 32.5354 13.3786 33.3731 12.9395C33.9169 12.6468 34.784 12.2077 34.7987 12.2223ZM29.1404 13.5981C29.1551 13.5981 29.258 13.6567 29.3755 13.7152C29.6548 13.8762 29.9193 14.0518 30.1398 14.2275C30.1545 14.2421 30.0369 14.3299 29.8752 14.447C29.449 14.7544 28.8024 15.2374 28.4349 15.5301C28.0381 15.8375 28.0234 15.8521 28.0675 15.7789C28.3615 15.3252 28.5084 15.0764 28.6701 14.7544C28.8024 14.4617 28.9493 14.125 29.0522 13.8177C29.0816 13.7006 29.1257 13.5981 29.1404 13.5981ZM30.6542 14.7837C30.6836 14.7837 30.6983 14.8129 30.8306 15.0032C31.0804 15.3837 31.2862 15.896 31.3302 16.3058L31.3449 16.3936L30.7277 16.6278C29.6254 17.0523 28.6113 17.4767 27.9352 17.7841C27.7442 17.8719 27.4061 18.0329 27.1857 18.1353C26.9652 18.2524 26.7889 18.3256 26.7889 18.3256C26.7889 18.3256 26.9211 18.2231 27.0975 18.0914C28.4349 17.1254 29.596 16.057 30.4631 15.0032C30.5513 14.8861 30.6395 14.7837 30.6542 14.7837ZM29.9634 14.9447C29.9781 14.9593 29.4637 15.5447 29.1257 15.896C28.2586 16.7742 27.4061 17.4621 26.348 18.1353C26.2157 18.2231 26.0981 18.2963 26.0834 18.311C26.054 18.3256 26.0981 18.2817 26.5537 17.7841C26.8477 17.4621 27.0681 17.1986 27.3327 16.8766C27.509 16.6571 27.5384 16.6278 27.7736 16.4522C28.4202 15.9545 29.934 14.93 29.9634 14.9447Z" fill="url(#paint2_radial_145_390)"/>
<path d="M10.563 33.4154C10.4749 33.4154 10.4014 33.4301 10.3132 33.4301C8.63773 33.5179 7.52076 34.2497 6.85939 35.684C6.30091 36.972 6.35969 38.6698 6.85939 39.9578C7.44727 41.2311 8.40258 41.9044 9.98985 42.1532C10.3279 42.2117 10.5483 42.3874 11.2097 43.1485L12.018 44.0852H13.473L12.503 43.1192C11.974 42.5923 11.533 42.1239 11.533 42.08C11.533 42.0361 11.7388 41.9483 11.9886 41.8751C12.8117 41.6263 13.4877 40.9969 13.958 40.031C14.3402 39.2552 14.399 39.0211 14.4577 38.0551C14.6047 35.1864 13.0909 33.4008 10.563 33.4154ZM11.8417 40.9091C11.1362 41.2458 10.1074 41.3189 9.43137 41.0701C8.74061 40.8213 8.06455 40.1041 7.75591 39.2845C7.41788 38.3917 7.46197 36.7525 7.85879 36.0207C8.47606 34.8498 9.2991 34.3082 10.4896 34.3082C12.2532 34.3082 13.2673 35.3913 13.3996 37.4111C13.5024 39.1089 12.9293 40.3822 11.8417 40.9091ZM36.9883 35.8597C36.371 35.8597 35.9154 36.1085 35.592 36.5915L35.3422 36.972V35.9767H34.284V41.9629H35.3422V40.0456C35.3422 38.2893 35.3569 38.0844 35.6067 37.616C35.9448 36.9574 36.5327 36.6354 37.0911 36.7817L37.4733 36.8842V35.845L36.9883 35.8597ZM30.7861 35.8011C30.5804 35.8011 30.3599 35.8304 30.1395 35.8743C28.7285 36.2402 27.9349 37.5867 27.979 38.9772C27.979 40.1334 28.1994 40.7189 28.7726 41.3336C29.919 42.2703 30.9625 42.3435 32.3734 41.8458C32.6086 41.7434 32.8731 41.6263 32.8731 41.6263V40.6896L32.3734 40.953C31.2417 41.4507 30.3746 41.4507 29.6838 40.8652C29.2429 40.4261 29.0519 39.8846 28.9637 39.2845H33.2258V38.4795C33.2258 36.8256 32.2264 35.7865 30.7861 35.8011ZM29.0666 38.4356C29.0666 38.4356 29.2282 37.4111 29.8014 37.0013C30.0807 36.811 30.404 36.7086 30.7273 36.7086C31.0507 36.7086 31.3593 36.811 31.6239 37.0159C32.1529 37.4257 32.2558 38.4356 32.2558 38.4356H29.0666ZM3.58196 37.3525C2.43559 36.6646 1.9212 36.167 1.99468 35.5816C2.17105 33.957 4.18454 34.1765 5.30151 34.7912L5.31621 33.6935C5.31621 33.6935 4.69893 33.4301 3.81711 33.4154C2.46499 33.4008 1.58317 33.8399 1.17165 34.7473C0.569072 36.0792 1.09816 37.0891 3.03817 38.2014C4.12575 38.8308 4.61075 39.3723 4.61075 39.9724C4.61075 41.2018 3.12635 41.6263 1.58317 40.8652C1.25983 40.7042 0.995286 40.5725 0.980589 40.5725C0.9218 40.9238 0.951194 41.758 0.951194 41.758C0.951194 41.758 1.4215 41.9483 2.12695 42.0947C3.8906 42.4459 5.47787 41.6263 5.63954 40.2944C5.75712 39.0357 5.30151 38.3771 3.58196 37.3525ZM46.3503 35.8011C46.1445 35.8011 45.924 35.8304 45.7036 35.8743C44.2927 36.2402 43.499 37.5867 43.5431 38.9772C43.5431 40.1334 43.7636 40.7189 44.3368 41.3189C45.4831 42.2557 46.5266 42.3435 47.9522 41.8312C48.1874 41.7288 48.4519 41.6117 48.4519 41.6117V40.6749L47.9522 40.9384C46.8059 41.436 45.9534 41.436 45.2627 40.8506C44.8218 40.4115 44.6307 39.8846 44.5425 39.2699H48.79V38.4649C48.79 36.811 47.7906 35.7718 46.3503 35.8011ZM44.616 38.421C44.616 38.421 44.7777 37.3965 45.3509 36.9866C45.6301 36.7817 45.9534 36.6939 46.2621 36.6939C46.5707 36.6939 46.894 36.7964 47.1586 37.0013C47.6877 37.4111 47.7906 38.421 47.7906 38.421H44.616ZM25.2454 37.3672C24.099 36.6793 23.5993 36.1817 23.6581 35.5962C23.8344 33.9716 25.8479 34.1911 26.9649 34.8059L26.9796 33.7081C26.9796 33.7081 26.3623 33.4447 25.4805 33.4301C24.1284 33.4154 23.2466 33.8545 22.835 34.7619C22.2325 36.0938 22.7763 37.1037 24.7016 38.2161C25.7891 38.8454 26.2594 39.387 26.2594 39.9724C26.2594 41.2018 24.775 41.6409 23.2319 40.8652C22.9232 40.7042 22.644 40.5725 22.6293 40.5725C22.5705 40.9238 22.5999 41.758 22.5999 41.758C22.5999 41.758 23.0702 41.9483 23.7756 42.0947C25.5393 42.4459 27.1266 41.6263 27.2882 40.2944C27.4205 39.0503 26.9649 38.3917 25.2454 37.3672ZM52.5524 35.845C51.9351 35.845 51.4648 36.0938 51.1562 36.5768L50.9063 36.9574V35.9621H49.8481V41.9483H50.9063V40.0456C50.9063 38.2893 50.921 38.0844 51.1709 37.616C51.5089 36.9574 52.0968 36.6354 52.6553 36.7964L53.0374 36.8988V35.8597L52.5524 35.845ZM16.8387 37.3379V33.5179H15.7805V41.9629H20.2631V40.9677H16.8534L16.8387 37.3379ZM41.4855 38.5234L40.6037 40.792L39.766 38.5088L38.9136 35.9767H37.826C38.5314 37.9673 39.2957 40.0017 40.0746 41.9629C40.4127 41.9776 40.7507 41.9629 41.0887 41.9629L42.2792 38.9918L43.4843 35.9621H42.4409C42.4262 35.9767 41.9705 37.1769 41.4855 38.5234ZM19.3078 31.22C19.4841 31.22 19.6164 31.1615 19.734 31.0444C19.8515 30.9273 19.9103 30.7956 19.9103 30.6199C19.9103 30.4443 19.8515 30.3126 19.734 30.1955C19.6164 30.093 19.4841 30.0345 19.3078 30.0345C19.1314 30.0345 18.9844 30.093 18.8815 30.2101C18.764 30.3272 18.7052 30.4736 18.7052 30.6346C18.7052 30.8102 18.764 30.9566 18.8815 31.059C18.9844 31.1615 19.1314 31.22 19.3078 31.22ZM18.9256 30.2394C19.0285 30.1369 19.1461 30.093 19.3078 30.093C19.4547 30.093 19.587 30.1369 19.6899 30.2394C19.7928 30.3418 19.8515 30.4589 19.8515 30.6199C19.8515 30.7663 19.7928 30.898 19.6899 31.0005C19.587 31.1029 19.4547 31.1468 19.3078 31.1468C19.1608 31.1468 19.0285 31.1029 18.9256 31.0005C18.8228 30.898 18.764 30.7663 18.764 30.6199C18.7787 30.4736 18.8228 30.3418 18.9256 30.2394ZM19.1755 30.6785H19.249C19.2931 30.6785 19.3519 30.7224 19.3812 30.8102L19.4694 31.0005H19.6017L19.4988 30.7956C19.4547 30.7077 19.4106 30.6638 19.3665 30.6492C19.4253 30.6346 19.4694 30.6199 19.5135 30.576C19.5429 30.5467 19.5576 30.4882 19.5576 30.4443C19.5576 30.3857 19.5429 30.3418 19.4988 30.2979C19.4547 30.254 19.3812 30.2394 19.2784 30.2394H19.0579V31.0005H19.1608L19.1755 30.6785ZM19.1755 30.3272H19.2784C19.3519 30.3272 19.3959 30.3418 19.4253 30.3565C19.4547 30.3711 19.4547 30.4004 19.4547 30.4589C19.4547 30.5467 19.3959 30.5907 19.2931 30.5907H19.1755V30.3272ZM1.58317 30.6053C1.58317 30.3418 1.56847 30.1369 1.56847 30.0198C1.59786 30.1516 1.62726 30.254 1.65665 30.3272L2.68544 32.5958H2.8618L3.8906 30.2979C3.91999 30.2394 3.94938 30.1369 3.97878 30.0052H3.99348C3.97878 30.2394 3.96408 30.4297 3.96408 30.5907V32.5958H4.31681V29.61H3.8759L2.92059 31.703C2.8912 31.7908 2.83241 31.9079 2.77362 32.0689H2.75893C2.74423 31.9811 2.68544 31.864 2.62665 31.7176L1.70074 29.6247H1.23044V32.6104H1.56847L1.58317 30.6053ZM5.06636 30.6199H5.37499V32.4787H5.06636V30.6199ZM5.21333 29.932C5.27211 29.932 5.3309 29.9174 5.37499 29.8735C5.41909 29.8296 5.44848 29.7857 5.44848 29.7125C5.44848 29.6539 5.43378 29.5954 5.37499 29.5515C5.3309 29.5076 5.27211 29.4929 5.21333 29.4929C5.15454 29.4929 5.09575 29.5076 5.05166 29.5515C5.00757 29.5954 4.97817 29.6539 4.97817 29.7125C4.97817 29.7857 4.99287 29.8296 5.05166 29.8735C5.09575 29.9174 5.15454 29.932 5.21333 29.932ZM7.52076 32.508V32.186C7.35909 32.3031 7.18273 32.3763 6.99167 32.3763C6.77121 32.3763 6.59485 32.3031 6.46257 32.1567C6.3303 32.0104 6.25682 31.8201 6.25682 31.5713C6.25682 31.3078 6.3303 31.1029 6.46257 30.9566C6.59485 30.8102 6.78591 30.737 6.99167 30.737C7.16803 30.737 7.34439 30.7956 7.50606 30.898V30.5321C7.35909 30.4589 7.19742 30.4297 7.00636 30.4297C6.66833 30.4297 6.38909 30.5321 6.19803 30.7516C6.00697 30.9566 5.90409 31.2493 5.90409 31.6005C5.90409 31.9079 5.99227 32.1714 6.18333 32.3616C6.37439 32.5665 6.62424 32.669 6.91818 32.669C7.16803 32.6543 7.35909 32.6104 7.52076 32.508ZM8.38788 31.5274C8.38788 31.2785 8.44667 31.0883 8.54955 30.9419C8.65243 30.8248 8.75531 30.7516 8.90228 30.7516C9.01985 30.7516 9.10804 30.7663 9.16682 30.8248V30.4736C9.12273 30.4589 9.04925 30.4443 8.96106 30.4443C8.84349 30.4443 8.72591 30.4882 8.63773 30.5614C8.53485 30.6492 8.44667 30.7663 8.40258 30.9273H8.38788V30.4882H8.04985V32.6251H8.38788V31.5274ZM10.3573 32.6543C10.6806 32.6543 10.9452 32.5519 11.1362 32.347C11.3273 32.1421 11.4302 31.864 11.4302 31.5274C11.4302 31.1761 11.342 30.9126 11.1656 30.7077C10.9893 30.5028 10.7394 30.415 10.4161 30.415C10.0927 30.415 9.82819 30.5175 9.63713 30.6931C9.43137 30.898 9.32849 31.1907 9.32849 31.5566C9.32849 31.8786 9.41667 32.1421 9.60773 32.347C9.7841 32.5519 10.0339 32.6543 10.3573 32.6543ZM9.87228 30.9273C10.0046 30.7956 10.1809 30.7224 10.3867 30.7224C10.6071 30.7224 10.7688 30.7956 10.9011 30.9273C11.0186 31.0736 11.0921 31.2785 11.0921 31.542C11.0921 31.8054 11.0333 32.0104 10.9158 32.1421C10.7982 32.2884 10.6218 32.3616 10.4014 32.3616C10.1809 32.3616 10.0046 32.2884 9.87228 32.1421C9.74001 31.9957 9.68122 31.8054 9.68122 31.542C9.66652 31.2785 9.72531 31.0736 9.87228 30.9273ZM12.9146 32.4787C13.0468 32.3616 13.1203 32.2153 13.1203 32.0396C13.1203 31.8786 13.0615 31.7469 12.9586 31.6445C12.8705 31.5566 12.7529 31.4835 12.5618 31.4103C12.4002 31.3371 12.2973 31.2785 12.2385 31.2346C12.1797 31.1761 12.1503 31.1175 12.1503 31.0151C12.1503 30.9273 12.1797 30.8541 12.2532 30.8102C12.3267 30.7516 12.4149 30.7224 12.5324 30.7224C12.7235 30.7224 12.8705 30.7663 13.0174 30.8687V30.5321C12.8852 30.4589 12.7235 30.4297 12.5618 30.4297C12.3414 30.4297 12.1503 30.4882 12.018 30.6053C11.8711 30.7224 11.8123 30.8687 11.8123 31.0444C11.8123 31.2054 11.8564 31.3371 11.9446 31.4249C12.018 31.5127 12.1503 31.5859 12.3267 31.6591C12.503 31.7323 12.6206 31.8055 12.6794 31.864C12.7382 31.9225 12.7676 31.9811 12.7676 32.0689C12.7676 32.2738 12.6353 32.3763 12.3561 32.3763C12.1503 32.3763 11.9593 32.3031 11.7976 32.1714V32.5373C11.9446 32.6251 12.1209 32.669 12.3267 32.669C12.5765 32.6543 12.7823 32.5958 12.9146 32.4787ZM14.5459 30.4297C14.2226 30.4297 13.958 30.5321 13.767 30.7077C13.5612 30.9126 13.4584 31.2054 13.4584 31.5713C13.4584 31.8933 13.5465 32.1567 13.7376 32.3616C13.9287 32.5665 14.1785 32.669 14.5018 32.669C14.8252 32.669 15.0897 32.5665 15.2808 32.3616C15.4718 32.1567 15.5747 31.8786 15.5747 31.542C15.5747 31.1907 15.4865 30.9273 15.3102 30.7224C15.1191 30.5175 14.8693 30.4297 14.5459 30.4297ZM15.222 31.542C15.222 31.8054 15.1632 32.0104 15.0456 32.1421C14.9281 32.2884 14.7517 32.3616 14.5312 32.3616C14.3108 32.3616 14.1344 32.2884 14.0021 32.1421C13.8699 31.9957 13.8111 31.8054 13.8111 31.542C13.8111 31.2639 13.8846 31.059 14.0168 30.9126C14.1491 30.7809 14.3255 30.7077 14.5312 30.7077C14.737 30.7077 14.9134 30.7809 15.0309 30.9126C15.1632 31.059 15.222 31.2639 15.222 31.542ZM16.1479 32.6104H16.4859V30.7663H16.9856V30.4736H16.4859V30.1516C16.4859 29.8588 16.6035 29.6978 16.8387 29.6978C16.9268 29.6978 17.0003 29.7125 17.0591 29.7564V29.449C17.0003 29.4198 16.9121 29.4198 16.8093 29.4198C16.6182 29.4198 16.4712 29.4783 16.3537 29.5954C16.2067 29.7271 16.1332 29.9028 16.1332 30.1516V30.5028H15.7658V30.7956H16.1332L16.1479 32.6104ZM17.5588 32.025C17.5588 32.4348 17.7499 32.6543 18.1173 32.6543C18.2496 32.6543 18.3525 32.6397 18.4406 32.5812V32.2884C18.3818 32.3323 18.3084 32.3616 18.2202 32.3616C18.1026 32.3616 18.0291 32.3324 17.9703 32.2738C17.9262 32.2153 17.8968 32.1128 17.8968 31.9664V30.7663H18.4406V30.4736H17.8968V29.8442C17.7793 29.8881 17.6617 29.9174 17.5588 29.9467V30.4589H17.1914V30.7516H17.5588V32.025ZM54.3748 35.9621C54.2573 35.8597 54.125 35.8011 53.9486 35.8011C53.7722 35.8011 53.6253 35.8597 53.5224 35.9767C53.4048 36.0938 53.346 36.2402 53.346 36.4012C53.346 36.5768 53.4048 36.7086 53.5224 36.8256C53.64 36.9281 53.7869 36.9866 53.9486 36.9866C54.125 36.9866 54.2573 36.9281 54.3748 36.811C54.4924 36.6939 54.5512 36.5622 54.5512 36.3866C54.5659 36.2109 54.4924 36.0646 54.3748 35.9621ZM54.3307 36.7671C54.2279 36.8696 54.1103 36.9135 53.9486 36.9135C53.8016 36.9135 53.6694 36.8696 53.5665 36.7671C53.4636 36.6646 53.4048 36.5329 53.4048 36.3866C53.4048 36.2402 53.4489 36.1085 53.5518 36.006C53.6547 35.9036 53.7722 35.8597 53.9339 35.8597C54.0809 35.8597 54.2132 35.9036 54.316 36.006C54.4189 36.1085 54.4777 36.2402 54.4777 36.3866C54.4777 36.5329 54.4336 36.6646 54.3307 36.7671ZM54.0221 36.4158C54.0809 36.4012 54.125 36.3719 54.1691 36.3427C54.1985 36.3134 54.2132 36.2548 54.2132 36.2109C54.2132 36.1524 54.1985 36.1085 54.1544 36.0646C54.1103 36.0207 54.0368 36.006 53.9339 36.006H53.7135V36.7671H53.8163V36.4451H53.8898C53.9339 36.4451 53.978 36.489 54.0221 36.5768L54.1103 36.7671H54.2425L54.1397 36.5622C54.0956 36.4744 54.0515 36.4305 54.0221 36.4158ZM53.9486 36.3427H53.831V36.0938H53.9339C54.0074 36.0938 54.0515 36.1085 54.0809 36.1231C54.1103 36.1377 54.1103 36.167 54.1103 36.2256C54.0956 36.3134 54.0515 36.3427 53.9486 36.3427ZM34.7984 30.3857H34.9013V29.6247H35.1511V29.5222H34.5486V29.6247H34.7984V30.3857ZM35.3716 29.8149V29.6393C35.3716 29.6832 35.3863 29.7125 35.401 29.7271L35.6949 30.3857H35.739L36.033 29.7271C36.0477 29.7125 36.0477 29.6832 36.0624 29.6393V30.3857H36.1652V29.5222H36.0477L35.7831 30.1223C35.7831 30.1369 35.7537 30.1808 35.739 30.2394H35.7243C35.7243 30.2101 35.7096 30.1808 35.6802 30.1369L35.4157 29.5368H35.2834V30.4004H35.3863L35.3716 29.8149Z" fill="#231F1F"/>
<defs>
<linearGradient id="paint0_linear_145_390" x1="14.8288" y1="36.0478" x2="21.0262" y2="31.8819" gradientUnits="userSpaceOnUse">
<stop stop-color="#909CA9"/>
<stop offset="1" stop-color="#EDEDEE"/>
</linearGradient>
<linearGradient id="paint1_linear_145_390" x1="1.03596" y1="22.5325" x2="10.9219" y2="22.5325" gradientUnits="userSpaceOnUse">
<stop stop-color="#939FAB"/>
<stop offset="1" stop-color="#DCDEE1"/>
</linearGradient>
<radialGradient id="paint2_radial_145_390" cx="0" cy="0" r="1" gradientUnits="userSpaceOnUse" gradientTransform="translate(24.6474 19.871) rotate(-170.168) scale(4.81413 11.0305)">
<stop stop-color="#EE352C"/>
<stop offset="1" stop-color="#A91D22"/>
</radialGradient>
</defs>
</svg>
